<svg width="20" height="20" viewBox="0 0 20 20" fill="none" xmlns="http://www.w3.org/2000/svg">
<path d="M6.18879 4.10186C6.41758 4.33157 6.61562 4.58997 6.77795 4.87061C7.83766 4.20802 9.06273 3.85767 10.3125 3.85978C11.6234 3.85978 12.8459 4.23728 13.8771 4.88936C14.0438 4.60145 14.2463 4.33228 14.4771 4.10186C15.5275 3.05353 17.3713 2.59186 18.2234 3.44228C19.0755 4.29228 18.6125 6.13228 17.5621 7.18061C17.242 7.49504 16.8702 7.75212 16.463 7.94061C16.805 8.75522 16.9807 9.63002 16.9796 10.5135C16.9796 14.1881 13.9946 17.1669 10.313 17.1669C6.63004 17.1669 3.64545 14.1877 3.64545 10.5135C3.64545 9.5952 3.8317 8.7202 4.16879 7.92436C3.77446 7.73814 3.41441 7.48669 3.10379 7.18061C2.05295 6.13228 1.59045 4.29228 2.44254 3.44228C3.29462 2.59228 5.13879 3.05353 6.18879 4.10186Z" stroke="#E54343" stroke-width="1.8" stroke-linejoin="round"/>
<path d="M10.3328 15.0836C12.1738 15.0836 13.6662 13.7777 13.6662 12.1669C13.6662 10.5561 12.1738 9.25024 10.3328 9.25024C8.4919 9.25024 6.99951 10.5561 6.99951 12.1669C6.99951 13.7777 8.4919 15.0836 10.3328 15.0836Z" stroke="#E54343" stroke-width="1.8"/>
<path d="M7.41634 8.41691C7.87658 8.41691 8.24967 8.04381 8.24967 7.58358C8.24967 7.12334 7.87658 6.75024 7.41634 6.75024C6.9561 6.75024 6.58301 7.12334 6.58301 7.58358C6.58301 8.04381 6.9561 8.41691 7.41634 8.41691Z" fill="#E54343"/>
<path d="M9.08285 13.0002C9.54308 13.0002 9.91618 12.6271 9.91618 12.1668C9.91618 11.7066 9.54308 11.3335 9.08285 11.3335C8.62261 11.3335 8.24951 11.7066 8.24951 12.1668C8.24951 12.6271 8.62261 13.0002 9.08285 13.0002Z" fill="#E54343"/>
<path d="M13.2498 8.41691C13.7101 8.41691 14.0832 8.04381 14.0832 7.58358C14.0832 7.12334 13.7101 6.75024 13.2498 6.75024C12.7896 6.75024 12.4165 7.12334 12.4165 7.58358C12.4165 8.04381 12.7896 8.41691 13.2498 8.41691Z" fill="#E54343"/>
<path d="M11.5828 13.0002C12.0431 13.0002 12.4162 12.6271 12.4162 12.1668C12.4162 11.7066 12.0431 11.3335 11.5828 11.3335C11.1226 11.3335 10.7495 11.7066 10.7495 12.1668C10.7495 12.6271 11.1226 13.0002 11.5828 13.0002Z" fill="#E54343"/>
</svg>
